<svg width="56" height="56" viewBox="0 0 56 56" fill="none" xmlns="http://www.w3.org/2000/svg">
<path d="M4.66406 23.3337C6.48406 14.4297 13.2274 7.30366 21.9447 4.87699C22.6774 4.67399 23.0414 4.57133 23.2397 4.78833C23.4381 5.00766 23.2911 5.36699 23.0017 6.09033L20.9974 10.5003M32.6641 4.66699C41.5681 6.48699 48.6941 13.2303 51.1207 21.9477C51.3237 22.6803 51.4264 23.0443 51.2094 23.2427C50.9901 23.441 50.6307 23.294 49.9074 23.0047L45.4974 21.0003M51.3307 32.667C49.5107 41.571 42.7674 48.697 34.0501 51.1237C33.3174 51.3267 32.9534 51.4293 32.7551 51.2123C32.5567 50.993 32.7037 50.6337 32.9931 49.9103L34.9974 45.5003M23.3307 51.3337C14.4267 49.5137 7.30073 42.7703 4.87406 34.053C4.67106 33.3203 4.5684 32.9563 4.7854 32.758C5.00473 32.5597 5.36406 32.7067 6.0874 32.996L10.4974 35.0003M27.9974 25.898C24.9337 27.998 21.2284 32.1513 19.8307 38.5003M21.8724 32.9097C17.0377 21.7237 26.7911 17.9507 34.2134 17.5307C35.1094 17.4793 35.5574 17.4537 35.8771 17.7803C36.1991 18.107 36.1804 18.5737 36.1431 19.5023C35.8374 27.2397 32.7527 37.8843 21.8724 32.9097Z" stroke="#3453CD" stroke-width="3.5" stroke-linecap="round" stroke-linejoin="round"/>
</svg>
