<?xml version="1.0" encoding="UTF-8"?>
<svg id="Warstwa_2" data-name="Warstwa 2" xmlns="http://www.w3.org/2000/svg" viewBox="0 0 80 81.23">
  <g id="Warstwa_1-2" data-name="Warstwa 1">
    <path d="M50.25,4.17s.01-.05.02-.08c0,0,0,0,0-.01,0-.02.01-.04.02-.06,0-.02.01-.04.02-.06,0,0,0,0,0-.01.01-.03.02-.05.04-.08,0-.02.02-.04.03-.06.01-.03.03-.05.05-.08,0-.02.02-.03.03-.05.02-.03.04-.05.06-.08.01-.01.02-.03.03-.04.02-.03.04-.05.07-.07.01-.01.02-.03.04-.04.02-.02.05-.04.07-.06.01-.01.03-.03.04-.04.02-.02.05-.04.07-.05.02-.01.03-.02.05-.04.02-.02.05-.03.07-.04.02-.01.04-.02.06-.03.03-.01.05-.03.08-.04.01,0,.03-.01.04-.02L58.35.12c.78-.33,1.68.04,2,.82.33.78-.04,1.68-.82,2l-3.64,1.52c6.44,2.78,12.01,7.2,16.26,12.93,5.14,6.94,7.85,15.17,7.85,23.82,0,22.06-17.94,40-40,40-7.81,0-15.4-2.28-21.96-6.59-.71-.46-.9-1.41-.44-2.12.46-.71,1.41-.9,2.12-.44,6.06,3.98,13.07,6.09,20.27,6.09,20.37,0,36.94-16.57,36.94-36.94,0-14.99-8.88-28.25-22.43-34.01l1.64,3.92c.33.78-.04,1.68-.82,2-.19.08-.39.12-.59.12-.6,0-1.17-.35-1.41-.94l-3.01-7.18s0,0,0-.01c-.01-.02-.02-.05-.03-.08,0-.02-.02-.04-.02-.06,0-.03-.02-.06-.02-.09,0-.02,0-.04-.01-.05,0-.03-.01-.07-.02-.1,0-.01,0-.03,0-.04,0-.04,0-.07,0-.11,0-.01,0-.03,0-.04,0-.03,0-.07,0-.1,0-.02,0-.03,0-.05,0-.03,0-.06.01-.09,0-.02,0-.04.01-.07,0-.02.01-.05.02-.07h0ZM6.58,68.7c-.85,0-1.53.69-1.53,1.53s.69,1.53,1.53,1.53h8.2c.11,0,.21-.01.32-.03,0,0,.01,0,.02,0,.04,0,.09-.02.13-.03.01,0,.03-.01.04-.02.03-.01.07-.02.1-.04.02,0,.04-.02.06-.03.03-.01.06-.03.08-.04.02-.01.04-.02.06-.04.02-.02.05-.03.07-.05.02-.01.04-.03.06-.04.02-.02.05-.04.07-.06.02-.01.03-.03.05-.05.02-.02.05-.05.07-.07,0-.01.02-.02.03-.03,0,0,0-.01.01-.02.02-.02.04-.05.05-.07.01-.02.03-.03.04-.05.02-.02.03-.05.04-.07.01-.02.02-.04.04-.06.01-.02.02-.05.04-.07.01-.02.02-.04.03-.06,0-.02.02-.05.03-.07,0-.02.02-.05.03-.07,0-.02.01-.05.02-.07,0-.03.01-.05.02-.08,0-.02,0-.05.01-.07,0-.03,0-.05.01-.08,0-.02,0-.04,0-.06,0-.03,0-.06,0-.09,0,0,0-.01,0-.02v-8.2c0-.85-.69-1.53-1.53-1.53s-1.53.69-1.53,1.53v4.61c-6.51-6.85-10.18-15.93-10.18-25.42C3.06,20.86,19.63,4.29,40,4.29c2.21,0,4.2.15,6.08.46.83.14,1.62-.43,1.76-1.26.14-.83-.43-1.62-1.26-1.76-2.05-.34-4.2-.5-6.58-.5C17.94,1.23,0,19.17,0,41.23c0,10.25,3.96,20.07,10.97,27.48h-4.4,0ZM44.41,38.97c.85,0,1.53-.69,1.53-1.53v-.63c0-2.23-1.82-4.05-4.05-4.05h-.36v-.99c0-.85-.69-1.53-1.53-1.53s-1.53.69-1.53,1.53v.99h-.36c-2.24,0-4.05,1.82-4.05,4.05v1.89c0,2.23,1.82,4.05,4.05,4.05h3.78c.55,0,.99.45.99.99v1.89c0,.55-.44.99-.99.99h-3.78c-.55,0-.99-.44-.99-.99v-.63c0-.85-.69-1.53-1.53-1.53s-1.53.69-1.53,1.53v.63c0,2.24,1.82,4.05,4.05,4.05h.36v.99c0,.84.69,1.53,1.53,1.53s1.53-.69,1.53-1.53v-.99h.36c2.24,0,4.05-1.82,4.05-4.05v-1.89c0-2.24-1.82-4.05-4.05-4.05h-3.78c-.55,0-.99-.44-.99-.99v-1.89c0-.55.44-.99.99-.99h3.78c.55,0,.99.44.99.99v.63c0,.85.69,1.53,1.53,1.53h0ZM57.3,41.23c0,9.54-7.76,17.3-17.3,17.3s-17.3-7.76-17.3-17.3,7.76-17.3,17.3-17.3,17.3,7.76,17.3,17.3ZM54.23,41.23c0-7.85-6.38-14.23-14.23-14.23s-14.23,6.39-14.23,14.23,6.38,14.24,14.23,14.24,14.23-6.39,14.23-14.24ZM69.74,41.02c0,2.26-.25,4.5-.74,6.67-.5,2.17-1.24,4.3-2.22,6.33-.31.64-1.02.99-1.72.83l-4.29-.98c-1.03,1.68-2.26,3.22-3.67,4.6l1.91,3.97c.31.64.13,1.41-.43,1.86-1.76,1.41-3.67,2.61-5.68,3.58-2,.96-4.14,1.71-6.33,2.21-.11.02-.23.04-.34.04-.58,0-1.12-.33-1.38-.87l-1.91-3.97c-1.97.24-3.91.24-5.88,0l-1.91,3.97c-.31.64-1.02.99-1.72.83-2.2-.5-4.33-1.24-6.33-2.21-2-.96-3.91-2.17-5.68-3.58-.56-.45-.74-1.22-.43-1.86l1.91-3.97c-1.41-1.38-2.64-2.92-3.67-4.6l-4.29.98c-.7.16-1.41-.18-1.72-.83-.98-2.03-1.73-4.16-2.22-6.33-.5-2.17-.74-4.41-.74-6.67,0-.71.49-1.33,1.19-1.49l4.29-.98c.2-1.96.64-3.89,1.31-5.74l-3.44-2.74c-.56-.45-.74-1.22-.43-1.86.98-2.03,2.18-3.95,3.56-5.69,1.39-1.74,2.99-3.33,4.75-4.74.56-.44,1.35-.44,1.91,0l3.44,2.75c1.66-1.07,3.44-1.92,5.3-2.56v-4.4c0-.71.49-1.33,1.19-1.49,2.2-.5,4.44-.76,6.67-.76s4.47.25,6.67.76c.7.16,1.19.78,1.19,1.49v4.4c1.86.63,3.64,1.49,5.3,2.56l3.44-2.75c.56-.44,1.35-.44,1.91,0,1.77,1.41,3.36,3,4.75,4.74,1.39,1.74,2.58,3.65,3.56,5.69.31.64.13,1.41-.43,1.86l-3.44,2.74c.67,1.85,1.11,3.78,1.31,5.74l4.29.98c.7.16,1.19.78,1.19,1.49h0ZM66.65,42.23l-4.17-.95c-.67-.15-1.15-.73-1.19-1.41-.13-2.41-.67-4.76-1.59-6.98-.26-.63-.07-1.36.46-1.78l3.34-2.66c-.76-1.42-1.65-2.77-2.65-4.02-1-1.25-2.11-2.41-3.33-3.47l-3.35,2.67c-.53.42-1.28.45-1.84.05-1.97-1.4-4.13-2.44-6.44-3.11-.66-.19-1.11-.79-1.11-1.47v-4.27c-3.18-.58-6.41-.58-9.59,0v4.27c0,.68-.45,1.28-1.11,1.47-2.31.66-4.48,1.71-6.44,3.11-.56.4-1.31.38-1.84-.05l-3.35-2.67c-1.22,1.06-2.34,2.23-3.33,3.47-.99,1.25-1.88,2.6-2.65,4.02l3.34,2.66c.53.42.72,1.15.46,1.78-.92,2.22-1.46,4.57-1.59,6.98-.04.68-.52,1.26-1.19,1.41l-4.17.95c.07,1.62.29,3.21.64,4.77.35,1.56.86,3.09,1.49,4.58l4.17-.95c.67-.15,1.35.16,1.68.75,1.16,2.1,2.67,3.99,4.47,5.59.51.45.65,1.19.36,1.81l-1.85,3.86c1.31.95,2.69,1.78,4.13,2.47,1.44.69,2.95,1.26,4.51,1.68l1.86-3.85c.3-.61.96-.96,1.63-.85,1.2.2,2.4.31,3.58.31s2.38-.1,3.58-.31c.67-.11,1.34.23,1.63.85l1.86,3.85c1.56-.43,3.07-.99,4.51-1.68,1.44-.69,2.82-1.52,4.13-2.47l-1.86-3.86c-.3-.61-.15-1.35.36-1.81,1.8-1.61,3.3-3.49,4.47-5.59.33-.6,1.01-.9,1.68-.75l4.17.95c.64-1.49,1.14-3.02,1.49-4.58.36-1.56.57-3.15.64-4.77Z" fill="#80b21f" stroke-width="0"/>
  </g>
</svg>